<svg id="color_line" height="512" viewBox="0 0 74 74" width="512" xmlns="http://www.w3.org/2000/svg" data-name="color line"><path d="m57.952 33.848c-15.158-6.194-26.747 7.573-41.9 1.379 0-11.682 0-17.524 0-29.206 15.157 6.194 26.746-7.573 41.9-1.379z" fill="#27ccbc"/><path d="m57.95 4.64v29.21a21.515 21.515 0 0 0 -4.06-1.23v-24.68c-13.77-5.62-24.6 5.23-37.84 2.61v-4.53c15.16 6.2 26.74-7.57 41.9-1.38z" fill="#21b3a9"/><g fill="#323c6b"><path d="m16.048 71.5a.5.5 0 0 1 -.5-.5v-64.978a.5.5 0 1 1 1 0v64.978a.5.5 0 0 1 -.5.5z"/><path d="m32.5 39.332a.5.5 0 0 1 -.113-.987c1.745-.4 3.431-.874 5.295-1.4.949-.269 1.885-.533 2.814-.781a.5.5 0 1 1 .258.966c-.924.247-1.855.51-2.8.777-1.877.531-3.574 1-5.34 1.414a.5.5 0 0 1 -.114.011z"/><path d="m27.332 40.2a.5.5 0 0 1 -.05-1l.319-.031c.237-.022.474-.044.708-.075a.5.5 0 1 1 .131.991c-.246.033-.5.056-.745.08l-.312.03z"/><path d="m60.952 18.813a.5.5 0 0 1 -.5-.5v-7.5a.5.5 0 0 1 1 0v7.5a.5.5 0 0 1 -.5.5z"/><path d="m60.952 21.938a.5.5 0 0 1 -.5-.5v-1.125a.5.5 0 0 1 1 0v1.125a.5.5 0 0 1 -.5.5z"/><path d="m24.43 37.366a22.287 22.287 0 0 1 -8.571-1.675.5.5 0 0 1 -.311-.463v-29.206a.5.5 0 0 1 .689-.463c7.418 3.032 13.835 1.215 20.627-.708 6.657-1.884 13.536-3.833 21.278-.671a.5.5 0 0 1 .311.463v29.206a.5.5 0 0 1 -.689.463c-7.419-3.032-13.835-1.215-20.627.708-4.101 1.16-8.288 2.345-12.707 2.346zm-7.882-2.476c7.288 2.855 13.618 1.063 20.315-.833 6.46-1.829 13.13-3.717 20.589-.94v-28.136c-7.29-2.856-13.619-1.063-20.315.833-6.46 1.829-13.13 3.717-20.589.94z"/></g><path d="m19.346 20.513a.8.8 0 0 1 .8.784v7.709a.7.7 0 0 1 -.066.3.76.76 0 0 1 -.723.5.708.708 0 0 1 -.55-.224.788.788 0 0 1 -.249-.55v-7.725a.814.814 0 0 1 .788-.794z" fill="#fff"/><path d="m19.357 17.356a.786.786 0 0 1 .794.784v.382a.74.74 0 0 1 -.071.3.771.771 0 0 1 -.713.5.787.787 0 0 1 -.8-.774v-.388a.818.818 0 0 1 .79-.804z" fill="#fff"/></svg>